<svg width="29" height="29" viewBox="0 0 29 29" fill="none" xmlns="http://www.w3.org/2000/svg">
<path d="M27.0964 11.8061C26.555 11.4493 25.8899 11.2364 25.1754 11.2364C25.0932 11.2364 25.012 11.2391 24.9316 11.2444L24.9422 11.2435C24.5483 11.2444 24.1632 11.2797 23.7887 11.3451L23.8293 11.3389C23.6218 10.1403 22.924 9.13523 21.9551 8.52051L21.9384 8.51079L21.5595 8.29175L21.3104 8.6521C21.0136 9.10432 20.7813 9.63072 20.6427 10.1933L20.6356 10.2278C20.557 10.5139 20.512 10.8425 20.512 11.1817C20.512 11.9156 20.7239 12.5992 21.0896 13.176L21.0808 13.161C20.5181 13.425 19.861 13.592 19.1695 13.6238H19.158H1.73285C1.27711 13.6247 0.907923 13.993 0.906157 14.4478C0.905273 14.4973 0.905273 14.5565 0.905273 14.6156C0.905273 16.1622 1.18526 17.6433 1.69753 19.0114L1.66926 18.9249C2.1621 20.3672 3.09302 21.5525 4.30127 22.3527L4.326 22.3677C5.86634 23.1652 7.68931 23.6325 9.62092 23.6325C9.80375 23.6325 9.98481 23.628 10.1659 23.6201L10.1403 23.621C10.1562 23.621 10.1747 23.621 10.1933 23.621C11.3167 23.621 12.4146 23.5141 13.4788 23.3101L13.3702 23.3278C14.9556 23.031 16.3688 22.4984 17.6494 21.7618L17.5841 21.7962C18.6943 21.1471 19.6429 20.3645 20.4501 19.4539L20.4607 19.4416C21.631 18.0637 22.5831 16.4554 23.2385 14.7031L23.2747 14.5927H23.5184C23.567 14.5944 23.6236 14.5962 23.6801 14.5962C24.7629 14.5962 25.7468 14.1714 26.4737 13.4789L26.472 13.4807C26.8049 13.1645 27.069 12.7803 27.243 12.3493L27.251 12.3281L27.3587 12.011L27.0964 11.8061ZM3.34739 13.115H5.6844C5.79657 13.1142 5.88754 13.0232 5.88754 12.911V10.831C5.88754 10.7188 5.79657 10.627 5.6844 10.6261H3.34739C3.23522 10.627 3.14425 10.718 3.14425 10.8301V12.911C3.14425 13.0232 3.23522 13.115 3.34739 13.115ZM6.56585 13.115H8.9011C9.01327 13.115 9.10512 13.0241 9.10512 12.911V10.831C9.10512 10.7188 9.01415 10.627 8.90198 10.6261H6.56497C6.45192 10.6261 6.36006 10.718 6.36006 10.831V12.911C6.36095 13.0241 6.4528 13.115 6.56585 13.115ZM9.83202 13.115H12.169C12.2812 13.1142 12.3722 13.0232 12.3722 12.911V10.831C12.3722 10.7188 12.2812 10.627 12.169 10.6261H9.83202C9.71985 10.627 9.62887 10.718 9.62887 10.8301V12.911C9.62887 13.0232 9.71985 13.115 9.8329 13.115H9.83202ZM13.0611 13.115H15.3954C15.5085 13.115 15.5995 13.0241 15.6004 12.911V10.831C15.6004 10.718 15.5085 10.6261 15.3954 10.6261H13.0611C12.9489 10.6261 12.8571 10.7171 12.8571 10.8301V12.911C12.8571 13.0232 12.948 13.115 13.0602 13.115C13.0602 13.115 13.0602 13.115 13.0611 13.115ZM6.56585 10.1227H8.9011C9.01415 10.1218 9.10512 10.0308 9.10512 9.91776V7.83777C9.10512 7.7256 9.01415 7.63375 8.9011 7.63375H6.56585C6.4528 7.63375 6.36183 7.72472 6.36095 7.83777V9.91776C6.36183 10.0308 6.4528 10.1218 6.56585 10.1227ZM9.83202 10.1227H12.169C12.2812 10.1218 12.3722 10.0299 12.3722 9.91776V7.83777C12.3722 7.7256 12.2812 7.63375 12.1681 7.63375H9.83378C9.72161 7.63375 9.62976 7.72472 9.62976 7.83777V9.91776C9.63064 10.0308 9.72073 10.1218 9.83378 10.1227H9.83202ZM13.0611 10.1227H15.3954C15.5085 10.1218 15.5995 10.0308 15.6004 9.91776V7.83777C15.5995 7.72472 15.5085 7.63375 15.3954 7.63375H13.0611C12.9489 7.63375 12.8571 7.72472 12.8571 7.83777V9.91776C12.8571 10.0308 12.948 10.1218 13.0611 10.1227ZM13.0611 7.13031H15.3954C15.5085 7.13031 15.6004 7.03846 15.6004 6.9254V4.84453C15.5995 4.73147 15.5085 4.6405 15.3954 4.6405H13.0611C12.9489 4.6405 12.8571 4.73147 12.8571 4.84453V6.9254C12.8571 7.03757 12.948 7.12943 13.0602 7.12943C13.0602 7.12943 13.0602 7.12943 13.0611 7.12943V7.13031ZM16.3175 13.115H18.6528C18.7658 13.115 18.8568 13.0241 18.8577 12.911V10.831C18.8577 10.718 18.7658 10.6261 18.6528 10.6261H16.3175C16.2045 10.6261 16.1135 10.7171 16.1135 10.8301V12.911C16.1135 13.0232 16.2045 13.115 16.3175 13.115Z" fill="#216FFF"/>
</svg>
