<svg width="18" height="18" viewBox="0 0 18 18" fill="none" xmlns="http://www.w3.org/2000/svg">
<path d="M1.125 6.72502C1.125 4.76481 1.125 3.78472 1.50648 3.03603C1.84204 2.37747 2.37747 1.84204 3.03603 1.50648C3.78472 1.125 4.76481 1.125 6.72502 1.125H11.275C13.2352 1.125 14.2153 1.125 14.964 1.50648C15.6225 1.84204 16.158 2.37747 16.4935 3.03603C16.875 3.78472 16.875 4.76481 16.875 6.72502V11.275C16.875 13.2352 16.875 14.2153 16.4935 14.964C16.158 15.6225 15.6225 16.158 14.964 16.4935C14.2153 16.875 13.2352 16.875 11.275 16.875H6.72502C4.76481 16.875 3.78472 16.875 3.03603 16.4935C2.37747 16.158 1.84204 15.6225 1.50648 14.964C1.125 14.2153 1.125 13.2352 1.125 11.275V6.72502Z" fill="white"/>
<path d="M12.404 4.79416L9.03629 7.42241L5.59155 4.79416V4.79487L5.59572 4.79842V8.47867L8.99747 11.1637L12.404 8.58234V4.79416Z" fill="#EA4335"/>
<path d="M13.288 4.15484L12.4036 4.79414V8.58234L15.1865 6.44569V5.15854C15.1865 5.15854 14.8488 3.3202 13.288 4.15484Z" fill="#FBBC05"/>
<path d="M12.4036 8.58233V13.4957H14.5366C14.5366 13.4957 15.1436 13.4332 15.1872 12.7413V6.44568L12.4036 8.58233Z" fill="#34A853"/>
<path d="M5.59587 13.5001V8.47867L5.59155 8.47513L5.59587 13.5001Z" fill="#C5221F"/>
<path d="M5.59133 4.79477L4.71176 4.15903C3.15101 3.32438 2.8125 5.16202 2.8125 5.16202V6.44912L5.59133 8.47502V4.79477Z" fill="#C5221F"/>
<path d="M5.59155 4.79498V8.47525L5.59587 8.47879V4.79854L5.59155 4.79498Z" fill="#C5221F"/>
<path d="M2.8125 6.45007V12.7457C2.85551 13.4383 3.46316 13.5002 3.46316 13.5002H5.59618L5.59133 8.47524L2.8125 6.45007Z" fill="#4285F4"/>
</svg>
