<svg width="18" height="18" viewBox="0 0 18 18" fill="none" xmlns="http://www.w3.org/2000/svg">
<g clip-path="url(#clip0_10_121)">
<path fill-rule="evenodd" clip-rule="evenodd" d="M9 0C13.9707 0 18 4.13094 18 9.22764C18 13.3037 15.4242 16.7616 11.8503 17.9829C11.394 18.0738 11.232 17.7856 11.232 17.5399C11.232 17.2357 11.2428 16.2421 11.2428 15.0073C11.2428 14.1469 10.9548 13.5854 10.6317 13.2992C12.636 13.0706 14.742 12.2902 14.742 8.746C14.742 7.738 14.3928 6.91544 13.815 6.26924C13.9086 6.03614 14.2173 5.09756 13.7268 3.82676C13.7268 3.82676 12.9726 3.5795 11.2545 4.7729C10.5354 4.5686 9.765 4.46581 9 4.46221C8.235 4.46581 7.4655 4.5686 6.7473 4.7729C5.0274 3.5795 4.2714 3.82676 4.2714 3.82676C3.7827 5.09756 4.0914 6.03614 4.1841 6.26924C3.609 6.91544 3.2571 7.738 3.2571 8.746C3.2571 12.2812 5.3586 13.0735 7.3575 13.3066C7.1001 13.537 6.867 13.9435 6.786 14.5402C6.273 14.776 4.9698 15.1841 4.167 13.7738C4.167 13.7738 3.6909 12.8872 2.7873 12.8224C2.7873 12.8224 1.9098 12.8107 2.7261 13.3831C2.7261 13.3831 3.3156 13.6666 3.7251 14.7331C3.7251 14.7331 4.2534 16.3801 6.7572 15.8221C6.7617 16.5934 6.7698 17.3203 6.7698 17.5399C6.7698 17.7838 6.6042 18.0692 6.1551 17.9837C2.5785 16.7642 0 13.3046 0 9.22764C0 4.13094 4.0302 0 9 0Z" fill="white"/>
</g>
<defs>
<clipPath id="clip0_10_121">
<rect width="18" height="18" fill="white"/>
</clipPath>
</defs>
</svg>
