<svg width="29" height="29" viewBox="0 0 29 29" fill="none" xmlns="http://www.w3.org/2000/svg">
<g clip-path="url(#clip0_1_953)">
<path d="M1.77954 0.935623L3.61388 24.4026C3.64141 24.755 3.87994 25.0555 4.2169 25.1624L13.8692 28.2226C14.0399 28.2767 14.2232 28.2767 14.3939 28.2226L24.0462 25.1624C24.3831 25.0555 24.6217 24.755 24.6492 24.4026L26.4835 0.935623C26.523 0.431095 26.1242 0 25.6182 0H2.64492C2.1389 0 1.74016 0.431095 1.77954 0.935623ZM21.7795 8.21665H9.82478L10.1856 11.5436H21.5195L20.7781 21.0283L14.1316 23.1355L7.48507 21.0283L7.09773 16.0731H10.5863V18.5037L14.2248 19.4802L17.8415 18.5037L18.1221 14.63H6.98491L6.2455 5.17021H22.0176L21.7795 8.21665Z" fill="#FF6A00"/>
</g>
<defs>
<clipPath id="clip0_1_953">
<rect width="28.2632" height="28.2632" fill="white"/>
</clipPath>
</defs>
</svg>
