<svg width="29" height="29" viewBox="0 0 29 29" fill="none" xmlns="http://www.w3.org/2000/svg">
<g clip-path="url(#clip0_1_959)">
<path d="M28.2627 28.2627H0V0H28.2627V28.2627ZM21.5117 12.8252C19.1399 12.8252 17.6221 14.3421 17.6221 16.334C17.6221 18.4962 18.895 19.5195 20.8115 20.3359L21.4756 20.6201C22.6869 21.1499 23.4092 21.4731 23.4092 22.3838C23.409 23.1436 22.7058 23.6934 21.6055 23.6934C20.2957 23.6933 19.5546 23.0105 18.9854 22.0811L16.8271 23.335C17.6069 24.8754 19.2007 26.0508 21.667 26.0508C24.1895 26.0508 26.0682 24.7406 26.0684 22.3496C26.0684 20.1316 24.7937 19.1444 22.5371 18.1768L21.873 17.8926C20.734 17.3992 20.2404 17.0767 20.2402 16.2803C20.2402 15.6356 20.7338 15.1416 21.5117 15.1416C22.2742 15.1417 22.7654 15.4639 23.2207 16.2803L25.2891 14.9521C24.4143 13.4134 23.2002 12.8253 21.5117 12.8252ZM12.7363 12.9775V22.0078C12.7363 23.3352 12.1851 23.6768 11.3125 23.6768C10.4003 23.6766 10.0207 23.0507 9.60352 22.3105L7.44141 23.6201C8.06773 24.9454 9.29956 26.0458 11.4258 26.0459C13.7793 26.0459 15.3916 24.7939 15.3916 22.0439V12.9775H12.7363Z" fill="white"/>
</g>
<defs>
<clipPath id="clip0_1_959">
<rect width="28.2632" height="28.2632" fill="white"/>
</clipPath>
</defs>
</svg>
