<svg width="29" height="29" viewBox="0 0 29 29" fill="none" xmlns="http://www.w3.org/2000/svg">
<path fill-rule="evenodd" clip-rule="evenodd" d="M9.49293 26.4967C8.90117 26.4967 8.32707 26.2265 7.94905 25.7354L2.20103 18.3658C2.01188 18.1249 1.87963 17.8444 1.81416 17.5453C1.7487 17.2461 1.75173 16.936 1.82301 16.6382L3.88092 7.44031C4.01164 6.83088 4.40733 6.33981 4.94962 6.06955L13.2784 1.97139C13.5434 1.8336 13.8384 1.76648 14.1352 1.76648C14.4319 1.76648 14.7269 1.8336 14.9919 1.96962L23.3171 6.05188C23.8612 6.32215 24.2569 6.81499 24.3876 7.42441L26.4455 16.6223C26.5762 17.2317 26.4455 17.8588 26.0675 18.3499L20.3142 25.7301C19.9362 26.2035 19.3603 26.4967 18.7685 26.4967H9.49293ZM23.1264 16.1895L23.1811 16.2037C23.2557 16.2136 23.3273 16.239 23.3916 16.278C23.4558 16.3171 23.5113 16.3691 23.5544 16.4307C23.5976 16.4922 23.6275 16.5621 23.6423 16.6358C23.6571 16.7095 23.6565 16.7855 23.6404 16.859C23.6238 16.9328 23.5919 17.0024 23.5467 17.0631C23.5016 17.1238 23.4442 17.1744 23.3782 17.2115C23.3123 17.2486 23.2393 17.2715 23.164 17.2787C23.0886 17.2858 23.0126 17.277 22.9409 17.2529H22.9338L22.9285 17.2512L22.9232 17.2494L22.8702 17.237L22.7819 17.2194C22.6171 17.1663 22.4555 17.1038 22.2979 17.0321C21.9937 16.91 21.6784 16.8178 21.3564 16.7566C21.245 16.7529 21.1367 16.7928 21.0543 16.8678C20.9774 16.8532 20.9002 16.8397 20.8229 16.8272C20.299 18.468 19.19 19.8587 17.7069 20.7346C17.7334 20.8088 17.7634 20.8812 17.797 20.9519C17.7422 21.0484 17.7276 21.1626 17.7564 21.2698C17.8871 21.5701 18.0478 21.8563 18.2351 22.1248C18.3411 22.2626 18.4364 22.4074 18.5248 22.5558L18.5742 22.6565L18.5954 22.7006C18.6544 22.7984 18.6809 22.9123 18.6712 23.026C18.6614 23.1397 18.616 23.2474 18.5412 23.3337C18.4665 23.42 18.3664 23.4804 18.2552 23.5063C18.1441 23.5322 18.0276 23.5223 17.9224 23.4779C17.8524 23.449 17.7892 23.4058 17.7368 23.3511C17.6845 23.2963 17.6442 23.2312 17.6186 23.1599C17.6127 23.1481 17.6069 23.1363 17.6009 23.1246L17.5515 23.0221C17.4896 22.8604 17.4371 22.6953 17.3942 22.5275C17.3004 22.2147 17.1761 21.9118 17.0233 21.6231C16.9569 21.5333 16.858 21.4731 16.7477 21.4553C16.7299 21.4242 16.7122 21.393 16.6947 21.3617L16.6329 21.2486C15.0248 21.856 13.2496 21.8516 11.6445 21.2363L11.5226 21.4571C11.4353 21.4705 11.354 21.5099 11.2894 21.5701C11.1057 21.8704 10.9644 22.1972 10.8708 22.5381C10.8286 22.7059 10.7767 22.871 10.7153 23.0327L10.6711 23.1211L10.6482 23.1688C10.6223 23.2395 10.582 23.3059 10.5297 23.3602C10.4775 23.4145 10.4145 23.4573 10.3449 23.4859C10.2752 23.5145 10.2003 23.5283 10.125 23.5263C10.0496 23.5244 9.97555 23.5068 9.90742 23.4746C9.83929 23.4425 9.77861 23.3965 9.72924 23.3396C9.67987 23.2827 9.6429 23.2161 9.62069 23.1441C9.59848 23.0721 9.59151 22.9963 9.60023 22.9215C9.60895 22.8466 9.63317 22.7744 9.67134 22.7095L9.69607 22.6565L9.742 22.5646C9.83032 22.4145 9.92571 22.2714 10.0317 22.1336C10.2225 21.8581 10.385 21.5648 10.521 21.2575C10.5351 21.1529 10.5179 21.0466 10.4715 20.9519L10.5705 20.7169C9.09279 19.848 7.98437 18.4681 7.45445 16.8378L7.21774 16.8784C7.12635 16.8137 7.01867 16.7757 6.90685 16.7689C6.58484 16.8301 6.26953 16.9224 5.96533 17.0445C5.80635 17.1151 5.6456 17.177 5.48133 17.23L5.393 17.2494L5.34001 17.2618H5.33471L5.33118 17.2653H5.32235C5.23278 17.294 5.13729 17.299 5.04521 17.2799C4.95312 17.2607 4.86758 17.218 4.79694 17.1558C4.72629 17.0937 4.67295 17.0144 4.64213 16.9255C4.61131 16.8366 4.60405 16.7413 4.62107 16.6488C4.64275 16.5374 4.69895 16.4356 4.7817 16.358C4.86445 16.2803 4.96955 16.2306 5.08211 16.216L5.08917 16.2143H5.09447L5.10507 16.2107C5.14747 16.2001 5.20046 16.186 5.23932 16.1789C5.41067 16.156 5.58378 16.1418 5.75689 16.1383C6.08545 16.1153 6.41048 16.0623 6.72667 15.9793C6.82038 15.9193 6.89945 15.839 6.95808 15.7444L7.18418 15.679C6.93848 13.9781 7.33113 12.2464 8.28644 10.8178L8.1151 10.6641C8.10849 10.5522 8.07053 10.4445 8.00558 10.3532C7.75663 10.1397 7.48745 9.95092 7.20185 9.78968C7.0474 9.71121 6.89759 9.62393 6.75317 9.52825C6.71503 9.50014 6.67792 9.47068 6.64188 9.43993L6.63482 9.43286C6.51172 9.34517 6.42844 9.21221 6.40327 9.06318C6.3781 8.91415 6.41309 8.76122 6.50057 8.63796C6.55254 8.57485 6.61864 8.52486 6.69352 8.49202C6.76839 8.45919 6.84995 8.44443 6.93158 8.44895C7.06885 8.45476 7.20067 8.50427 7.30783 8.59027L7.34669 8.6203C7.37496 8.64326 7.40675 8.66622 7.42795 8.68565C7.55337 8.80401 7.67349 8.93119 7.78477 9.06191C8.00558 9.30391 8.24935 9.52472 8.51255 9.71903C8.61147 9.77202 8.72629 9.78262 8.83404 9.75082L9.02835 9.8886C10.2111 8.63414 11.8176 7.86362 13.5363 7.72647L13.5487 7.4986C13.6328 7.42489 13.6941 7.32867 13.7253 7.22127C13.7373 6.89389 13.7172 6.56612 13.6653 6.24266C13.6308 6.07346 13.606 5.90242 13.5911 5.73039V5.63677V5.5926V5.58554V5.57847C13.5831 5.50289 13.5912 5.42647 13.6148 5.35422C13.6384 5.28197 13.6769 5.21551 13.7279 5.15916C13.7789 5.10282 13.8413 5.05787 13.9108 5.02724C13.9804 4.99661 14.0556 4.981 14.1316 4.98141C14.2073 4.98157 14.2821 4.99751 14.3513 5.02821C14.4204 5.05892 14.4824 5.10371 14.5333 5.15974C14.5842 5.21576 14.6228 5.28178 14.6467 5.35358C14.6706 5.42537 14.6793 5.50137 14.6722 5.57671V5.73039C14.6579 5.9024 14.6337 6.07344 14.5997 6.24266C14.5474 6.56549 14.5267 6.89265 14.5379 7.2195C14.5592 7.32922 14.6226 7.42623 14.7145 7.48977V7.50213L14.7269 7.73177C16.4351 7.88545 18.0302 8.65386 19.2137 9.89214L19.4186 9.74552C19.5293 9.7647 19.6431 9.75246 19.7472 9.71019C20.0104 9.51588 20.2541 9.29508 20.4749 9.05131C20.5865 8.91909 20.7056 8.79346 20.8318 8.67505L20.9218 8.6044L20.9519 8.57967C21.0482 8.48896 21.1743 8.43646 21.3065 8.43201C21.4388 8.42756 21.5681 8.47145 21.6703 8.55548C21.7726 8.6395 21.8406 8.7579 21.8619 8.88851C21.8831 9.01912 21.856 9.15298 21.7856 9.26505C21.7443 9.32857 21.6902 9.38272 21.6267 9.42403C21.6125 9.43286 21.5966 9.44523 21.5825 9.45936L21.5065 9.51765C21.3621 9.61335 21.2123 9.70064 21.0579 9.77908C20.7722 9.94099 20.5031 10.1303 20.2541 10.3443C20.1815 10.4283 20.1447 10.5374 20.1517 10.6482C20.1224 10.6743 20.093 10.7002 20.0633 10.7259L19.9609 10.8195C20.9183 12.2433 21.3193 13.9691 21.0861 15.6684L21.3034 15.732C21.3582 15.8309 21.4394 15.9104 21.5366 15.9652C21.8545 16.05 22.1796 16.103 22.5081 16.1242C22.6795 16.1295 22.8526 16.1418 23.0239 16.1666L23.1264 16.1895ZM18.0478 10.7135L15.7373 12.3475L15.7303 12.344C15.6607 12.3953 15.5785 12.4267 15.4925 12.4349C15.4065 12.4432 15.3199 12.4279 15.2419 12.3907C15.1639 12.3535 15.0975 12.2958 15.0497 12.2238C15.0019 12.1518 14.9746 12.0682 14.9707 11.9818L14.8099 9.1573C16.0306 9.30849 17.168 9.85402 18.0478 10.7135ZM13.6971 13.8101H14.5662L15.1067 14.4831L14.9124 15.324L14.1316 15.6967L13.3491 15.3204L13.1548 14.4814L13.6971 13.8101ZM12.8774 9.25622C13.0665 9.21382 13.259 9.18026 13.4533 9.1573L13.2943 11.9836L13.2802 11.9907C13.2776 12.0549 13.2619 12.118 13.2342 12.176C13.2064 12.234 13.1671 12.2858 13.1187 12.3281C13.0702 12.3704 13.0137 12.4024 12.9525 12.4221C12.8912 12.4419 12.8267 12.4489 12.7626 12.4429C12.6766 12.4356 12.5942 12.405 12.5242 12.3546L12.5206 12.3563L10.196 10.7135C10.9361 9.98929 11.8653 9.48409 12.8774 9.25622ZM9.35514 11.7699L11.4766 13.6617L11.4749 13.6741C11.5396 13.7306 11.5877 13.8036 11.6142 13.8853C11.6407 13.9671 11.6445 14.0544 11.6253 14.1381C11.6061 14.2219 11.5646 14.2988 11.5051 14.3608C11.4456 14.4228 11.3705 14.4675 11.2876 14.4902L11.2859 14.499L8.56554 15.2816C8.43024 14.0557 8.70813 12.8198 9.35514 11.7699ZM12.1956 16.7972L11.1145 19.4009C10.0787 18.7395 9.29013 17.7547 8.87114 16.5993L11.6586 16.1277L11.6639 16.133C11.7726 16.1119 11.8853 16.1301 11.9819 16.1842C12.0845 16.2415 12.1623 16.3347 12.2004 16.4459C12.2386 16.557 12.2343 16.6784 12.1885 16.7866L12.1956 16.7972ZM15.3858 20.1464C14.3754 20.376 13.3191 20.323 12.3369 19.9909L13.7094 17.5179C13.7502 17.4422 13.8124 17.3789 13.8861 17.3347C13.9599 17.2905 14.0442 17.2671 14.1302 17.2669C14.2162 17.2667 14.3006 17.2898 14.3746 17.3337C14.4485 17.3775 14.5092 17.4406 14.5503 17.5161H14.5609L15.9369 19.9927C15.7559 20.0529 15.5719 20.1042 15.3858 20.1464ZM17.1593 19.4115L16.0676 16.7813L16.0694 16.776C16.0358 16.697 16.0242 16.6104 16.0358 16.5253C16.0474 16.4403 16.0819 16.36 16.1355 16.2929C16.1892 16.2259 16.2599 16.1747 16.3404 16.1446C16.4208 16.1146 16.5078 16.1069 16.5923 16.1224L16.5976 16.1153L19.4115 16.5905C18.9955 17.7552 18.203 18.7479 17.1593 19.4115ZM19.7065 15.2727L16.9756 14.4867L16.9721 14.4761C16.9101 14.4589 16.8522 14.4294 16.8019 14.3893C16.7517 14.3492 16.71 14.2994 16.6795 14.2428C16.6489 14.1862 16.6302 14.124 16.6243 14.06C16.6184 13.9959 16.6256 13.9314 16.6453 13.8702C16.6723 13.788 16.7211 13.7147 16.7866 13.6582L16.7813 13.6547L18.8922 11.7699C19.5387 12.8191 19.8231 14.0486 19.7048 15.2727H19.7065Z" fill="white"/>
</svg>
