<svg width="29" height="29" viewBox="0 0 29 29" fill="none" xmlns="http://www.w3.org/2000/svg">
<path fill-rule="evenodd" clip-rule="evenodd" d="M9.49305 26.4967C8.90129 26.4967 8.32719 26.2265 7.94917 25.7354L2.20115 18.3658C2.012 18.1249 1.87975 17.8445 1.81429 17.5453C1.74882 17.2461 1.75185 16.936 1.82313 16.6382L3.88105 7.44031C4.01176 6.83088 4.40745 6.33981 4.94975 6.06955L13.2785 1.97139C13.5435 1.8336 13.8385 1.76648 14.1353 1.76648C14.432 1.76648 14.727 1.8336 14.992 1.96962L23.3173 6.05188C23.8613 6.32215 24.257 6.81499 24.3877 7.42441L26.4456 16.6223C26.5764 17.2317 26.4456 17.8588 26.0676 18.3499L20.3143 25.7301C19.9363 26.2035 19.3604 26.4967 18.7687 26.4967H9.49305ZM23.1265 16.1895L23.1812 16.2037C23.2558 16.2136 23.3274 16.239 23.3917 16.278C23.4559 16.3171 23.5114 16.3691 23.5545 16.4307C23.5977 16.4922 23.6276 16.5621 23.6424 16.6358C23.6572 16.7095 23.6566 16.7855 23.6405 16.859C23.6239 16.9328 23.592 17.0024 23.5469 17.0631C23.5017 17.1238 23.4443 17.1744 23.3784 17.2115C23.3124 17.2486 23.2394 17.2715 23.1641 17.2787C23.0887 17.2858 23.0127 17.277 22.941 17.2529H22.9339L22.9286 17.2512L22.9233 17.2494L22.8704 17.237L22.782 17.2194C22.6172 17.1663 22.4556 17.1038 22.298 17.0321C21.9938 16.91 21.6785 16.8178 21.3565 16.7566C21.2452 16.7529 21.1368 16.7928 21.0544 16.8678C20.9775 16.8532 20.9004 16.8397 20.823 16.8272C20.2992 18.468 19.1901 19.8587 17.707 20.7346C17.7335 20.8088 17.7636 20.8812 17.7971 20.9519C17.7423 21.0484 17.7277 21.1626 17.7565 21.2698C17.8872 21.5701 18.048 21.8563 18.2352 22.1248C18.3412 22.2626 18.4366 22.4074 18.5249 22.5558L18.5744 22.6565L18.5956 22.7006C18.6545 22.7984 18.681 22.9123 18.6713 23.026C18.6616 23.1397 18.6161 23.2474 18.5414 23.3337C18.4667 23.42 18.3665 23.4804 18.2554 23.5063C18.1442 23.5322 18.0277 23.5223 17.9225 23.4779C17.8525 23.449 17.7893 23.4058 17.7369 23.3511C17.6846 23.2963 17.6443 23.2312 17.6187 23.1599C17.6129 23.1481 17.607 23.1363 17.601 23.1246L17.5516 23.0221C17.4897 22.8604 17.4372 22.6953 17.3944 22.5275C17.3005 22.2147 17.1763 21.9118 17.0234 21.6231C16.957 21.5333 16.8581 21.4731 16.7478 21.4553C16.73 21.4242 16.7124 21.393 16.6949 21.3617L16.633 21.2486C15.0249 21.856 13.2497 21.8516 11.6446 21.2363L11.5227 21.4571C11.4354 21.4705 11.3541 21.5099 11.2895 21.5701C11.1058 21.8704 10.9645 22.1972 10.8709 22.5381C10.8287 22.7059 10.7768 22.871 10.7154 23.0327L10.6713 23.1211L10.6483 23.1688C10.6224 23.2395 10.5821 23.3059 10.5299 23.3602C10.4776 23.4145 10.4147 23.4573 10.345 23.4859C10.2753 23.5145 10.2004 23.5283 10.1251 23.5263C10.0498 23.5244 9.97568 23.5068 9.90754 23.4746C9.83941 23.4425 9.77873 23.3965 9.72936 23.3396C9.67999 23.2827 9.64303 23.2161 9.62081 23.1441C9.5986 23.0721 9.59163 22.9963 9.60035 22.9215C9.60907 22.8466 9.63329 22.7744 9.67146 22.7095L9.69619 22.6565L9.74212 22.5646C9.83044 22.4145 9.92583 22.2714 10.0318 22.1336C10.2226 21.8581 10.3851 21.5648 10.5211 21.2575C10.5352 21.1529 10.518 21.0466 10.4717 20.9519L10.5706 20.7169C9.09291 19.848 7.98449 18.4681 7.45457 16.8378L7.21787 16.8784C7.12648 16.8137 7.01879 16.7757 6.90697 16.7689C6.58497 16.8301 6.26965 16.9224 5.96545 17.0445C5.80647 17.1151 5.64573 17.177 5.48145 17.23L5.39313 17.2494L5.34013 17.2618H5.33483L5.3313 17.2653H5.32247C5.2329 17.294 5.13742 17.299 5.04533 17.2799C4.95324 17.2607 4.8677 17.218 4.79706 17.1558C4.72641 17.0937 4.67308 17.0144 4.64225 16.9255C4.61143 16.8366 4.60417 16.7413 4.62119 16.6488C4.64287 16.5374 4.69907 16.4356 4.78182 16.358C4.86457 16.2803 4.96968 16.2306 5.08223 16.216L5.0893 16.2143H5.0946L5.10519 16.2107C5.14759 16.2001 5.20058 16.186 5.23944 16.1789C5.41079 16.156 5.5839 16.1418 5.75701 16.1383C6.08557 16.1153 6.4106 16.0623 6.72679 15.9793C6.8205 15.9193 6.89957 15.839 6.9582 15.7444L7.1843 15.679C6.9386 13.9781 7.33125 12.2464 8.28657 10.8178L8.11522 10.6641C8.10861 10.5522 8.07066 10.4445 8.0057 10.3532C7.75676 10.1397 7.48757 9.95092 7.20197 9.78968C7.04752 9.71121 6.89771 9.62393 6.75329 9.52825C6.71516 9.50014 6.67804 9.47068 6.642 9.43993L6.63494 9.43286C6.51184 9.34517 6.42857 9.21221 6.4034 9.06318C6.37823 8.91415 6.41322 8.76122 6.50069 8.63796C6.55267 8.57485 6.61877 8.52486 6.69364 8.49202C6.76852 8.45919 6.85007 8.44443 6.9317 8.44895C7.06897 8.45476 7.2008 8.50427 7.30795 8.59027L7.34682 8.6203C7.37508 8.64326 7.40687 8.66622 7.42807 8.68565C7.55349 8.80401 7.67361 8.93119 7.78489 9.06191C8.0057 9.30391 8.24947 9.52472 8.51267 9.71903C8.61159 9.77202 8.72641 9.78262 8.83416 9.75082L9.02847 9.8886C10.2113 8.63414 11.8178 7.86362 13.5364 7.72647L13.5488 7.4986C13.6329 7.42489 13.6942 7.32867 13.7255 7.22127C13.7374 6.89389 13.7173 6.56612 13.6654 6.24266C13.6309 6.07346 13.6061 5.90242 13.5912 5.73039V5.63677V5.5926V5.58554V5.57847C13.5833 5.50289 13.5913 5.42647 13.6149 5.35422C13.6385 5.28197 13.6771 5.21551 13.7281 5.15916C13.7791 5.10282 13.8414 5.05787 13.9109 5.02724C13.9805 4.99661 14.0557 4.981 14.1317 4.98141C14.2074 4.98157 14.2822 4.99751 14.3514 5.02821C14.4205 5.05892 14.4825 5.10371 14.5334 5.15974C14.5843 5.21576 14.6229 5.28178 14.6468 5.35358C14.6707 5.42537 14.6794 5.50137 14.6723 5.57671V5.73039C14.658 5.9024 14.6339 6.07344 14.5998 6.24266C14.5476 6.56549 14.5269 6.89265 14.538 7.2195C14.5593 7.32922 14.6227 7.42623 14.7147 7.48977V7.50213L14.727 7.73177C16.4352 7.88545 18.0303 8.65386 19.2138 9.89214L19.4187 9.74552C19.5294 9.7647 19.6432 9.75246 19.7473 9.71019C20.0105 9.51588 20.2542 9.29508 20.4751 9.05131C20.5866 8.91909 20.7058 8.79346 20.8319 8.67505L20.922 8.6044L20.952 8.57967C21.0483 8.48896 21.1744 8.43646 21.3067 8.43201C21.4389 8.42756 21.5682 8.47145 21.6705 8.55548C21.7727 8.6395 21.8408 8.7579 21.862 8.88851C21.8832 9.01912 21.8561 9.15298 21.7858 9.26505C21.7444 9.32857 21.6903 9.38272 21.6268 9.42403C21.6126 9.43286 21.5967 9.44523 21.5826 9.45936L21.5067 9.51765C21.3623 9.61335 21.2124 9.70064 21.058 9.77908C20.7724 9.94099 20.5032 10.1303 20.2542 10.3443C20.1816 10.4283 20.1449 10.5374 20.1518 10.6482C20.1225 10.6743 20.0931 10.7002 20.0635 10.7259L19.961 10.8195C20.9184 12.2433 21.3194 13.9691 21.0862 15.6684L21.3035 15.732C21.3583 15.8309 21.4395 15.9104 21.5367 15.9652C21.8546 16.05 22.1797 16.103 22.5082 16.1242C22.6796 16.1295 22.8527 16.1418 23.024 16.1666L23.1265 16.1895ZM18.048 10.7135L15.7374 12.3475L15.7304 12.344C15.6608 12.3953 15.5787 12.4267 15.4927 12.4349C15.4066 12.4432 15.32 12.4279 15.242 12.3907C15.164 12.3535 15.0976 12.2958 15.0498 12.2238C15.002 12.1518 14.9747 12.0682 14.9708 11.9818L14.8101 9.1573C16.0307 9.30849 17.1681 9.85402 18.048 10.7135ZM13.6972 13.8101H14.5663L15.1068 14.4831L14.9125 15.324L14.1317 15.6967L13.3492 15.3204L13.1549 14.4814L13.6972 13.8101ZM12.8776 9.25622C13.0666 9.21382 13.2591 9.18026 13.4534 9.1573L13.2944 11.9836L13.2803 11.9907C13.2777 12.0549 13.2621 12.118 13.2343 12.176C13.2065 12.234 13.1672 12.2858 13.1188 12.3281C13.0703 12.3704 13.0138 12.4024 12.9526 12.4221C12.8914 12.4419 12.8268 12.4489 12.7627 12.4429C12.6767 12.4356 12.5943 12.405 12.5243 12.3546L12.5207 12.3563L10.1961 10.7135C10.9362 9.98929 11.8654 9.48409 12.8776 9.25622ZM9.35527 11.7699L11.4768 13.6617L11.475 13.6741C11.5397 13.7306 11.5878 13.8036 11.6143 13.8853C11.6408 13.9671 11.6447 14.0544 11.6254 14.1381C11.6062 14.2219 11.5647 14.2988 11.5052 14.3608C11.4458 14.4228 11.3706 14.4675 11.2878 14.4902L11.286 14.499L8.56566 15.2816C8.43036 14.0557 8.70826 12.8198 9.35527 11.7699ZM12.1957 16.7972L11.1146 19.4009C10.0788 18.7395 9.29025 17.7547 8.87126 16.5993L11.6587 16.1277L11.664 16.133C11.7727 16.1119 11.8854 16.1301 11.982 16.1842C12.0846 16.2415 12.1624 16.3347 12.2006 16.4459C12.2387 16.557 12.2345 16.6784 12.1886 16.7866L12.1957 16.7972ZM15.3859 20.1464C14.3755 20.376 13.3192 20.323 12.337 19.9909L13.7096 17.5179C13.7503 17.4422 13.8125 17.3789 13.8863 17.3347C13.96 17.2905 14.0444 17.2671 14.1303 17.2669C14.2163 17.2667 14.3007 17.2898 14.3747 17.3337C14.4486 17.3775 14.5093 17.4406 14.5504 17.5161H14.561L15.937 19.9927C15.756 20.0529 15.572 20.1042 15.3859 20.1464ZM17.1594 19.4115L16.0678 16.7813L16.0695 16.776C16.0359 16.697 16.0243 16.6104 16.0359 16.5253C16.0476 16.4403 16.082 16.36 16.1357 16.2929C16.1893 16.2259 16.2601 16.1747 16.3405 16.1446C16.4209 16.1146 16.508 16.1069 16.5924 16.1224L16.5977 16.1153L19.4117 16.5905C18.9956 17.7552 18.2031 18.7479 17.1594 19.4115ZM19.7066 15.2727L16.9757 14.4867L16.9722 14.4761C16.9102 14.4589 16.8523 14.4294 16.8021 14.3893C16.7518 14.3492 16.7101 14.2994 16.6796 14.2428C16.6491 14.1862 16.6303 14.124 16.6244 14.06C16.6185 13.9959 16.6257 13.9314 16.6454 13.8702C16.6724 13.788 16.7213 13.7147 16.7867 13.6582L16.7814 13.6547L18.8923 11.7699C19.5388 12.8191 19.8232 14.0486 19.7049 15.2727H19.7066Z" fill="#216FFF"/>
</svg>
