<svg width="29" height="29" viewBox="0 0 29 29" fill="none" xmlns="http://www.w3.org/2000/svg">
<g clip-path="url(#clip0_16_262)">
<path d="M13.972 20.4753C13.972 20.4753 13.972 11.3252 14.2758 11.3261C14.5107 11.3261 14.8163 23.1291 14.8163 23.1291C14.3959 23.0796 13.972 21.1871 13.972 20.4753ZM19.8607 11.4321C19.0491 7.88546 17.2714 4.83603 14.8198 2.4825L14.8137 2.4772C14.5152 2.02151 14.2423 1.4987 14.0233 0.947626L14.0021 0.887573C14.0029 0.905236 14.0029 0.926431 14.0029 0.947626C14.0029 1.44659 13.7795 1.89257 13.4272 2.19195L13.4245 2.19372C10.2682 4.87312 8.25999 8.82157 8.19375 13.2398V13.2513C8.19287 13.3061 8.19287 13.3705 8.19287 13.435C8.19287 17.8127 10.2991 21.6984 13.5534 24.1341L13.5879 24.1588L13.6647 24.2144C13.8066 25.2648 13.9279 26.3175 14.0286 27.3725H14.5593C14.7059 26.0558 14.9037 24.9033 15.1625 23.7729L15.1219 23.9839C15.4716 23.7411 15.7771 23.4894 16.0624 23.2165L16.0597 23.2192C18.5334 20.9257 20.0771 17.6581 20.0771 14.0311C20.0771 13.9773 20.0771 13.9243 20.0762 13.8704V13.8783C20.0736 13.012 19.995 12.1651 19.8457 11.3429L19.859 11.4303L19.8607 11.4321Z" fill="#50FF56"/>
</g>
<defs>
<clipPath id="clip0_16_262">
<rect width="28.26" height="28.26" fill="white"/>
</clipPath>
</defs>
</svg>
