<svg width="29" height="29" viewBox="0 0 29 29" fill="none" xmlns="http://www.w3.org/2000/svg">
<g clip-path="url(#clip0_1_971)">
<path d="M22.6105 18.3711C20.7733 18.3711 19.2189 19.5016 18.6536 21.1974H12.7183C12.7183 20.2082 12.4357 19.3603 12.0118 18.6537L22.0452 8.33768C22.4691 8.33768 22.8931 8.479 23.317 8.479C25.2955 8.479 26.8499 6.92452 26.8499 4.9461C26.8499 2.96768 25.2955 1.41321 23.317 1.41321C21.3386 1.41321 19.7841 2.96768 19.7841 4.9461C19.7841 5.37005 19.9255 5.93531 20.0668 6.35926L10.1747 16.534C9.32677 15.8274 8.19624 15.5448 7.06572 15.5448V9.60952C8.76151 9.04426 9.89203 7.48979 9.89203 5.65268C9.89203 3.25031 8.05493 1.41321 5.65256 1.41321C3.25019 1.41321 1.41309 3.25031 1.41309 5.65268C1.41309 7.48979 2.54361 9.04426 4.2394 9.60952V16.2514C2.54361 17.2406 1.41309 19.0777 1.41309 21.0561C1.41309 24.1651 3.95677 26.7087 7.06572 26.7087C9.18545 26.7087 11.0226 25.5782 11.8705 23.8824H18.5123C19.0776 25.4369 20.632 26.7087 22.4691 26.7087C24.7302 26.7087 26.7086 24.8716 26.7086 22.4693C26.8499 20.2082 24.8715 18.3711 22.6105 18.3711Z" fill="#6BF6E6"/>
</g>
<defs>
<clipPath id="clip0_1_971">
<rect width="28.2632" height="28.2632" fill="white"/>
</clipPath>
</defs>
</svg>
