<svg width="29" height="29" viewBox="0 0 29 29" fill="none" xmlns="http://www.w3.org/2000/svg">
<g clip-path="url(#clip0_1_971)">
<path d="M22.6106 18.3711C20.7735 18.3711 19.219 19.5016 18.6537 21.1974H12.7185C12.7185 20.2082 12.4358 19.3603 12.0119 18.6537L22.0453 8.33768C22.4693 8.33768 22.8932 8.479 23.3172 8.479C25.2956 8.479 26.8501 6.92452 26.8501 4.9461C26.8501 2.96768 25.2956 1.41321 23.3172 1.41321C21.3387 1.41321 19.7843 2.96768 19.7843 4.9461C19.7843 5.37005 19.9256 5.93531 20.0669 6.35926L10.1748 16.534C9.32689 15.8274 8.19637 15.5448 7.06584 15.5448V9.60952C8.76163 9.04426 9.89216 7.48979 9.89216 5.65268C9.89216 3.25031 8.05505 1.41321 5.65268 1.41321C3.25031 1.41321 1.41321 3.25031 1.41321 5.65268C1.41321 7.48979 2.54373 9.04426 4.23952 9.60952V16.2514C2.54373 17.2406 1.41321 19.0777 1.41321 21.0561C1.41321 24.1651 3.95689 26.7087 7.06584 26.7087C9.18558 26.7087 11.0227 25.5782 11.8706 23.8824H18.5124C19.0777 25.4369 20.6322 26.7087 22.4693 26.7087C24.7303 26.7087 26.7087 24.8716 26.7087 22.4693C26.85 20.2082 24.8716 18.3711 22.6106 18.3711Z" fill="white"/>
</g>
<defs>
<clipPath id="clip0_1_971">
<rect width="28.2632" height="28.2632" fill="white"/>
</clipPath>
</defs>
</svg>
