<svg width="29" height="29" viewBox="0 0 29 29" fill="none" xmlns="http://www.w3.org/2000/svg">
<g clip-path="url(#clip0_1_964)">
<path fill-rule="evenodd" clip-rule="evenodd" d="M14.1316 15.1895C13.9224 15.1895 13.7179 15.1275 13.5439 15.0112C13.37 14.895 13.2344 14.7299 13.1543 14.5366C13.0743 14.3433 13.0533 14.1307 13.0941 13.9255C13.1349 13.7203 13.2356 13.5318 13.3835 13.3839C13.5314 13.236 13.7199 13.1352 13.925 13.0944C14.1302 13.0535 14.3429 13.0745 14.5362 13.1545C14.7294 13.2345 14.8946 13.3701 15.0109 13.544C15.1271 13.7179 15.1892 13.9224 15.1892 14.1316C15.1891 14.4121 15.0776 14.681 14.8793 14.8794C14.681 15.0777 14.4121 15.1893 14.1316 15.1895ZM14.1316 11.7491C13.6604 11.7491 13.1997 11.8889 12.8079 12.1507C12.4161 12.4125 12.1107 12.7846 11.9304 13.2199C11.7501 13.6553 11.7029 14.1343 11.7949 14.5965C11.8868 15.0586 12.1137 15.4831 12.4469 15.8163C12.7801 16.1495 13.2046 16.3764 13.6668 16.4684C14.129 16.5603 14.608 16.5131 15.0433 16.3328C15.4787 16.1524 15.8508 15.847 16.1126 15.4552C16.3744 15.0634 16.5141 14.6028 16.5141 14.1316C16.5134 13.4999 16.2621 12.8943 15.8155 12.4477C15.3688 12.001 14.7632 11.7498 14.1316 11.7491ZM25.2227 20.535C24.6586 21.5115 22.9656 21.8726 20.577 21.5253C20.1822 21.468 19.7766 21.3927 19.3602 21.2995C19.6588 20.0548 19.871 18.791 19.995 17.517C21.0363 16.7725 22.0247 15.9569 22.9533 15.0759C23.2416 15.3893 23.5097 15.7029 23.7577 16.0167C25.2523 17.9118 25.7861 19.5585 25.2227 20.535ZM17.3123 23.4105C16.4185 25.6527 15.2593 26.9383 14.1316 26.9383C13.0039 26.9383 11.8446 25.6525 10.9509 23.4103C10.8037 23.0393 10.6662 22.6504 10.5384 22.2438C11.7656 21.8797 12.9661 21.4314 14.1316 20.9022C15.297 21.4315 16.4975 21.8798 17.7246 22.244C17.5976 22.6499 17.4601 23.0388 17.3122 23.4105L17.3123 23.4105ZM7.6863 21.5253C5.29773 21.8727 3.6047 21.5115 3.04043 20.535C2.47616 19.5585 3.01073 17.9118 4.50565 16.0167C4.7528 15.7035 5.02082 15.3899 5.30971 15.0759C6.23837 15.9568 7.22683 16.7725 8.26801 17.5171C8.39234 18.791 8.60445 20.0548 8.90283 21.2995C8.48724 21.3922 8.08176 21.4675 7.6863 21.5253ZM3.04043 7.72821C3.46383 6.99491 4.52386 6.60878 6.03699 6.60878C6.58914 6.61234 7.14033 6.65551 7.6863 6.73795C8.0811 6.79547 8.48663 6.87071 8.90288 6.96367C8.60452 8.20848 8.39241 9.47239 8.26807 10.7464C7.22691 11.4911 6.23844 12.3067 5.30971 13.1876C5.02174 12.8741 4.75372 12.5604 4.50565 12.2466C3.01073 10.3516 2.47694 8.70489 3.04043 7.72821ZM10.9508 4.85265C11.8445 2.6107 13.0037 1.32484 14.1316 1.32484C15.2594 1.32484 16.4186 2.61064 17.3123 4.8526C17.4595 5.22373 17.597 5.61268 17.7247 6.01945C16.4976 6.38351 15.297 6.83176 14.1316 7.36101C12.9661 6.83178 11.7656 6.38358 10.5384 6.01961C10.6655 5.61336 10.803 5.22442 10.9509 4.85276L10.9508 4.85265ZM20.1236 12.4967C20.1492 13.0358 20.1619 13.5808 20.1617 14.1317C20.1614 14.6827 20.1488 15.2277 20.1236 15.7668C20.8081 15.2329 21.4451 14.6853 22.0253 14.1317C21.4451 13.5781 20.8082 13.0305 20.1236 12.4967ZM15.7113 8.12505C16.1912 8.37265 16.6696 8.63393 17.1466 8.90891C17.6235 9.18389 18.0891 9.46753 18.5432 9.75984C18.4234 8.8998 18.2676 8.0746 18.0784 7.29554C17.3089 7.52104 16.5162 7.79859 15.7112 8.12489L15.7113 8.12505ZM11.1165 8.90952C11.593 8.63406 12.0714 8.37265 12.5517 8.12527C11.7468 7.79898 10.9542 7.52142 10.1844 7.29593C9.99516 8.07498 9.83971 8.90019 9.71992 9.76023C10.1735 9.46888 10.639 9.18531 11.1165 8.90952ZM8.13939 15.7668C8.11415 15.2277 8.10149 14.6827 8.10141 14.1317C8.10134 13.5808 8.114 13.0358 8.13939 12.4967C7.4549 13.0305 6.81792 13.5781 6.23776 14.1317C6.81792 14.6853 7.45512 15.2327 8.13939 15.7668ZM12.5518 20.1382C12.0721 19.8908 11.5937 19.6295 11.1165 19.3543C10.6393 19.0791 10.1738 18.7956 9.71992 18.5039C9.83971 19.3631 9.99516 20.1886 10.1844 20.968C10.9542 20.7422 11.7466 20.4646 12.5517 20.1383L12.5518 20.1382ZM18.5433 18.5035C18.0895 18.795 17.6239 19.0784 17.1467 19.354C16.6702 19.629 16.1918 19.8903 15.7115 20.1378C16.5163 20.4641 17.3092 20.7417 18.0787 20.9675C18.268 20.1881 18.4237 19.3626 18.5435 18.5034L18.5433 18.5035ZM16.4843 18.2064C17.2665 17.7549 18.0185 17.2797 18.7317 16.7873C18.8013 15.9233 18.8372 15.0349 18.8372 14.1316C18.8372 13.2283 18.8013 12.3398 18.7317 11.4758C18.0185 10.9834 17.2665 10.508 16.4843 10.0562C15.7021 9.60434 14.9149 9.19171 14.1317 8.82009C13.3483 9.19187 12.5611 9.60506 11.7789 10.0563C10.9966 10.5076 10.2449 10.9837 9.53174 11.476C9.46191 12.34 9.42625 13.2284 9.42625 14.1317C9.42625 15.0351 9.46191 15.9235 9.53174 16.7875C10.2449 17.2799 10.9967 17.7551 11.7789 18.2066C12.5611 18.6582 13.3483 19.0716 14.1315 19.4431C14.9148 19.0716 15.7019 18.6586 16.4841 18.2066L16.4843 18.2064ZM20.5772 6.73778C21.1231 6.65541 21.6743 6.61231 22.2265 6.60883C23.739 6.60883 24.7994 6.99524 25.2228 7.72804C25.7863 8.70472 25.2525 10.3514 23.7578 12.2463C23.5104 12.56 23.2422 12.8737 22.9533 13.1876C22.0247 12.3067 21.0362 11.491 19.995 10.7465C19.8709 9.47241 19.6588 8.20848 19.3602 6.96372C19.776 6.87132 20.1817 6.79607 20.577 6.738L20.5772 6.73778ZM26.3697 7.06579C25.508 5.57347 23.3833 4.99121 20.3864 5.42686C19.9393 5.49196 19.4798 5.57815 19.0081 5.68542C18.8652 5.22427 18.71 4.78325 18.5426 4.36235C17.4216 1.54934 15.8551 0 14.1316 0C12.4081 0 10.8416 1.54934 9.72058 4.36235C9.5531 4.7824 9.39799 5.22342 9.25524 5.68542C8.78418 5.5784 8.32469 5.49222 7.87674 5.42686C4.8798 4.99121 2.75504 5.57347 1.8934 7.06579C1.03176 8.55811 1.58979 10.6894 3.46565 13.0668C3.74559 13.4221 4.0499 13.777 4.37857 14.1316C4.05075 14.4857 3.74644 14.8405 3.46565 15.196C1.58979 17.5736 1.03176 19.7049 1.8934 21.1974C2.56857 22.367 4.01866 22.9777 6.0573 22.9777C6.66636 22.974 7.27438 22.9268 7.87669 22.8362C8.32375 22.7712 8.78325 22.6851 9.25518 22.578C9.39815 23.0388 9.55327 23.481 9.72053 23.9012C10.8416 26.7144 12.4082 28.2632 14.1316 28.2632C15.8549 28.2632 17.4216 26.7144 18.5426 23.9014C18.71 23.4811 18.8652 23.0389 19.0082 22.5781C19.479 22.6845 19.9384 22.7706 20.3864 22.8364C20.9887 22.927 21.5967 22.9741 22.2058 22.9772C24.2439 22.9772 25.6945 22.3666 26.3697 21.1975C27.2313 19.7049 26.6733 17.5736 24.7977 15.1962C24.5178 14.8413 24.2134 14.4865 23.8846 14.1317C24.2126 13.7776 24.517 13.4228 24.7977 13.0672C26.6733 10.6896 27.2313 8.5586 26.3697 7.06579Z" fill="white"/>
</g>
<defs>
<clipPath id="clip0_1_964">
<rect width="28.2632" height="28.2632" fill="white"/>
</clipPath>
</defs>
</svg>
