<svg width="29" height="29" viewBox="0 0 29 29" fill="none" xmlns="http://www.w3.org/2000/svg">
<path d="M14.2828 16.5162C13.858 16.7114 13.3925 16.9658 12.4607 17.4772C12.1074 17.6759 11.7382 17.8746 11.3946 18.0619C11.3708 18.038 11.3461 18.008 11.3222 17.9833C9.47893 16.0137 6.06968 14.6226 6.21453 11.9774C6.26841 11.0138 6.59962 8.48421 12.7619 5.41236C17.8333 2.91283 21.8688 3.60528 22.5657 5.14121C23.5672 7.33072 20.4026 11.405 15.1651 11.9959C14.5855 12.1135 13.9868 12.0993 13.4133 11.9544C12.8399 11.8094 12.3064 11.5375 11.8522 11.1586C11.5748 10.8574 11.5333 10.8398 11.4309 10.8998C11.2622 10.9881 11.3708 11.2611 11.4309 11.4174C11.6306 11.7791 11.9009 12.0971 12.2257 12.3526C12.5505 12.608 12.9232 12.7958 13.3218 12.9047C15.3829 13.3502 17.5319 13.1374 19.4655 12.2962C22.6398 11.0676 25.1182 7.65221 24.3922 4.7888C23.6635 1.88564 18.8446 0.92823 14.2854 2.54806C11.4302 3.51024 8.79225 5.02489 6.52189 7.00569C4.01001 9.35507 3.61256 11.3971 3.77507 12.252C4.35976 15.2877 8.54448 17.2635 10.2226 18.727C10.1343 18.7755 10.0601 18.8153 9.99385 18.8533C9.15655 19.2693 5.96458 20.9377 5.1688 22.7023C4.26526 24.702 5.31365 26.1354 6.00609 26.328C7.04961 26.5779 8.14514 26.4958 9.1397 26.0929C10.1343 25.6901 10.9782 24.9867 11.5536 24.0811C12.0423 23.33 12.3424 22.4721 12.4283 21.5802C12.5143 20.6883 12.3836 19.7889 12.0473 18.9584C12.2457 18.8001 12.4573 18.6592 12.6797 18.5371C13.1072 18.2845 13.5144 18.0354 13.8756 17.8428C15.1125 17.2635 16.4622 16.9652 17.828 16.9693C20.695 17.3067 21.2611 19.0953 21.1525 19.8486C21.1017 20.1159 20.9942 20.3693 20.8373 20.5915C20.6803 20.8138 20.4776 20.9999 20.2428 21.1373C20.0441 21.2636 19.9778 21.306 19.9955 21.3961C20.0193 21.5285 20.1156 21.5224 20.2843 21.4985C20.715 21.3624 21.0945 21.0991 21.3729 20.7434C21.6513 20.3876 21.8155 19.9559 21.8441 19.5051C21.9324 17.7386 20.2481 15.8008 17.2663 15.8185C16.3735 15.82 15.4896 15.9962 14.6643 16.3369C14.5319 16.3917 14.4032 16.4506 14.2784 16.5136L14.2828 16.5162ZM10.0212 23.4398C9.06911 24.4759 7.74428 24.8671 7.17195 24.5359C6.55369 24.1826 6.79834 22.6502 7.96685 21.5542C8.65891 20.9306 9.40692 20.3721 10.2014 19.8857C10.3401 19.7974 10.545 19.6808 10.7914 19.5325C10.8338 19.5086 10.8576 19.4962 10.8576 19.4962L11.0025 19.4079C11.2109 20.1066 11.2299 20.8482 11.0574 21.5567C10.885 22.2651 10.5274 22.915 10.0212 23.4398Z" fill="#FF0099"/>
</svg>
