<svg width="29" height="29" viewBox="0 0 29 29" fill="none" xmlns="http://www.w3.org/2000/svg">
<path d="M14.2827 16.5162C13.8578 16.7114 13.3924 16.9658 12.4606 17.4772C12.1073 17.6759 11.7381 17.8746 11.3945 18.0619C11.3707 18.038 11.3459 18.008 11.3221 17.9833C9.47881 16.0137 6.06956 14.6226 6.21441 11.9774C6.26829 11.0138 6.5995 8.48421 12.7617 5.41236C17.8332 2.91283 21.8687 3.60528 22.5655 5.14121C23.5671 7.33072 20.4025 11.405 15.165 11.9959C14.5853 12.1135 13.9867 12.0993 13.4132 11.9544C12.8398 11.8094 12.3062 11.5375 11.852 11.1586C11.5747 10.8574 11.5332 10.8398 11.4307 10.8998C11.262 10.9881 11.3707 11.2611 11.4307 11.4174C11.6305 11.7791 11.9008 12.0971 12.2256 12.3526C12.5504 12.608 12.9231 12.7958 13.3217 12.9047C15.3828 13.3502 17.5318 13.1374 19.4654 12.2962C22.6397 11.0676 25.118 7.65221 24.392 4.7888C23.6634 1.88564 18.8445 0.92823 14.2853 2.54806C11.4301 3.51024 8.79213 5.02489 6.52177 7.00569C4.00988 9.35507 3.61243 11.3971 3.77495 12.252C4.35964 15.2877 8.54436 17.2635 10.2225 18.727C10.1342 18.7755 10.06 18.8153 9.99372 18.8533C9.15643 19.2693 5.96446 20.9377 5.16867 22.7023C4.26514 24.702 5.31352 26.1354 6.00597 26.328C7.04949 26.5779 8.14502 26.4958 9.13957 26.0929C10.1341 25.6901 10.9781 24.9867 11.5535 24.0811C12.0422 23.33 12.3422 22.4721 12.4282 21.5802C12.5142 20.6883 12.3835 19.7889 12.0472 18.9584C12.2456 18.8001 12.4572 18.6592 12.6796 18.5371C13.1071 18.2845 13.5143 18.0354 13.8755 17.8428C15.1123 17.2635 16.4621 16.9652 17.8279 16.9693C20.6949 17.3067 21.261 19.0953 21.1524 19.8486C21.1016 20.1159 20.9941 20.3693 20.8371 20.5915C20.6802 20.8138 20.4775 20.9999 20.2427 21.1373C20.0439 21.2636 19.9777 21.306 19.9953 21.3961C20.0192 21.5285 20.1155 21.5224 20.2842 21.4985C20.7149 21.3624 21.0944 21.0991 21.3728 20.7434C21.6511 20.3876 21.8154 19.9559 21.8439 19.5051C21.9323 17.7386 20.248 15.8008 17.2662 15.8185C16.3734 15.82 15.4894 15.9962 14.6642 16.3369C14.5317 16.3917 14.4031 16.4506 14.2782 16.5136L14.2827 16.5162ZM10.0211 23.4398C9.06899 24.4759 7.74415 24.8671 7.17183 24.5359C6.55357 24.1826 6.79822 22.6502 7.96673 21.5542C8.65879 20.9306 9.4068 20.3721 10.2013 19.8857C10.3399 19.7974 10.5449 19.6808 10.7913 19.5325C10.8337 19.5086 10.8575 19.4962 10.8575 19.4962L11.0024 19.4079C11.2108 20.1066 11.2297 20.8482 11.0573 21.5567C10.8849 22.2651 10.5273 22.915 10.0211 23.4398Z" fill="white"/>
</svg>
