<svg width="29" height="29" viewBox="0 0 29 29" fill="none" xmlns="http://www.w3.org/2000/svg">
<path d="M7.94823 12.0988C8.77248 8.80182 10.8331 7.15332 14.1301 7.15332C19.0756 7.15332 19.6938 10.8624 22.1665 11.4806C23.815 11.8928 25.2575 11.2746 26.4939 9.62607C25.6696 12.9231 23.609 14.5716 20.312 14.5716C15.3665 14.5716 14.7483 10.8624 12.2755 10.2443C10.627 9.83213 9.18461 10.4503 7.94823 12.0988ZM1.76636 19.5171C2.59061 16.2201 4.65123 14.5716 7.94823 14.5716C12.8937 14.5716 13.5119 18.2807 15.9847 18.8989C17.6332 19.311 19.0756 18.6928 20.312 17.0443C19.4877 20.3413 17.4271 21.9898 14.1301 21.9898C9.18461 21.9898 8.56642 18.2807 6.09367 17.6625C4.44517 17.2504 3.00273 17.8686 1.76636 19.5171Z" fill="white"/>
</svg>
