<svg width="18" height="18" viewBox="0 0 18 18" fill="none" xmlns="http://www.w3.org/2000/svg">
<path d="M15.5322 2.74087C15.5322 2.74087 16.9892 2.17275 16.8678 3.55248C16.8273 4.12061 16.4631 6.10905 16.1798 8.25982L15.2085 14.631C15.2085 14.631 15.1275 15.5643 14.399 15.7266C13.6705 15.8889 12.5778 15.1585 12.3754 14.9962C12.2135 14.8744 9.34005 13.0483 8.32822 12.1555C8.04491 11.9121 7.72114 11.4251 8.36869 10.857L12.6183 6.79894C13.1039 6.31196 13.5896 5.17571 11.566 6.55545L5.89991 10.4106C5.89991 10.4106 5.25236 10.8164 4.03823 10.4512L1.40753 9.63956C1.40753 9.63956 0.436204 9.03086 2.09556 8.42212C6.14276 6.51484 11.1208 4.56697 15.5322 2.74087Z" fill="white"/>
</svg>
