<svg width="29" height="29" viewBox="0 0 29 29" fill="none" xmlns="http://www.w3.org/2000/svg">
<g clip-path="url(#clip0_16_243)">
<path d="M28.4111 -1.13672C29.2134 -1.13672 29.8633 -0.485827 29.8633 0.316406V28.4111C29.8633 29.2134 29.2134 29.8633 28.4111 29.8633H0.316406C-0.485827 29.8633 -1.13672 29.2134 -1.13672 28.4111V0.316406C-1.13672 -0.485827 -0.485827 -1.13672 0.316406 -1.13672H28.4111ZM20.8125 11.8086C20.1988 11.8053 19.5865 11.8745 18.9893 12.0156C18.4497 12.139 17.9368 12.3585 17.4746 12.6631C17.0453 12.9491 16.6904 13.3339 16.4404 13.7852C16.1755 14.2865 16.0441 14.8482 16.0596 15.415C16.04 16.1645 16.2865 16.8968 16.7559 17.4814C17.3317 18.1296 18.0584 18.6266 18.8711 18.9287C19.242 19.0818 19.5883 19.2323 19.9092 19.3789C20.1986 19.5077 20.4772 19.66 20.7412 19.835C20.9542 19.9735 21.1413 20.1484 21.2939 20.3516C21.4281 20.5358 21.4994 20.7584 21.4971 20.9863C21.4983 21.157 21.4545 21.3253 21.3701 21.4736C21.2762 21.6332 21.1436 21.7672 20.9854 21.8633C20.7874 21.9839 20.5711 22.0711 20.3447 22.1211C20.0497 22.1871 19.7476 22.2182 19.4453 22.2139C18.8523 22.2128 18.2641 22.1086 17.707 21.9053C17.1249 21.6952 16.5843 21.3827 16.1123 20.9824V23.6914C16.6045 23.9343 17.1292 24.1054 17.6699 24.1992C18.295 24.3146 18.9298 24.3717 19.5654 24.3691C20.1848 24.3721 20.8029 24.3094 21.4092 24.1826C21.9535 24.0726 22.4731 23.863 22.9414 23.5645C23.3762 23.2838 23.7346 22.8995 23.9844 22.4463C24.4317 21.5079 24.4915 20.4309 24.1494 19.4492C24.005 19.0821 23.7893 18.747 23.5156 18.4629C23.222 18.1609 22.8886 17.9002 22.5244 17.6885C22.105 17.4428 21.6688 17.226 21.2197 17.04C20.8665 16.8934 20.5482 16.7507 20.2656 16.6123C20.0147 16.4922 19.7745 16.3507 19.5479 16.1895C19.3703 16.065 19.2156 15.9105 19.0918 15.7324C18.9849 15.5708 18.9298 15.3803 18.9326 15.1865C18.9303 15.0081 18.9795 14.8322 19.0752 14.6816C19.1791 14.5242 19.3179 14.3926 19.4805 14.2969C19.6794 14.1797 19.8963 14.0953 20.1221 14.0469C20.399 13.9854 20.6821 13.9561 20.9658 13.959C21.2045 13.9598 21.4433 13.9765 21.6797 14.0098C21.9349 14.0443 22.1876 14.0965 22.4355 14.166C22.6879 14.2359 22.9346 14.3252 23.1738 14.4316C23.4058 14.5351 23.6279 14.6593 23.8369 14.8037V12.2754C23.4017 12.1108 22.9502 11.992 22.4902 11.9219C21.9347 11.8411 21.3738 11.8036 20.8125 11.8086ZM5.24414 14.2373H8.76074V24.1758H11.5605V14.2373H15.0938V12.0049H5.24414V14.2373Z" fill="#3178C6"/>
</g>
<defs>
<clipPath id="clip0_16_243">
<rect width="28.26" height="28.26" fill="white"/>
</clipPath>
</defs>
</svg>
