<svg width="24" height="24" viewBox="0 0 24 24" fill="none" xmlns="http://www.w3.org/2000/svg">
<path d="M9.49316 2.45534C10.886 1.09113 13.114 1.09113 14.5068 2.45534V2.45534C15.1672 3.10218 16.0521 3.46871 16.9765 3.4783V3.4783C18.926 3.49854 20.5015 5.07399 20.5217 7.02351V7.02351C20.5313 7.94787 20.8978 8.83275 21.5447 9.49316V9.49316C22.9089 10.886 22.9089 13.114 21.5447 14.5068V14.5068C20.8978 15.1672 20.5313 16.0521 20.5217 16.9765V16.9765C20.5015 18.926 18.926 20.5015 16.9765 20.5217V20.5217C16.0521 20.5313 15.1672 20.8978 14.5068 21.5447V21.5447C13.114 22.9089 10.886 22.9089 9.49316 21.5447V21.5447C8.83275 20.8978 7.94787 20.5313 7.02351 20.5217V20.5217C5.07399 20.5015 3.49854 18.926 3.4783 16.9765V16.9765C3.46871 16.0521 3.10218 15.1672 2.45534 14.5068V14.5068C1.09113 13.114 1.09113 10.886 2.45534 9.49316V9.49316C3.10218 8.83275 3.46871 7.94787 3.4783 7.02351V7.02351C3.49854 5.07399 5.07399 3.49854 7.02351 3.4783V3.4783C7.94787 3.46871 8.83275 3.10218 9.49316 2.45534V2.45534Z" fill="#4D85FF"/>
<path d="M8 11.6785C9.25526 12.9338 11.2143 14.8928 11.2143 14.8928L15.7143 9.10712" stroke="#141414" stroke-width="1.60714" stroke-linecap="round" stroke-linejoin="round"/>
</svg>
