<svg width="358" height="144" viewBox="0 0 358 144" fill="none" xmlns="http://www.w3.org/2000/svg">
<path fill-rule="evenodd" clip-rule="evenodd" d="M179.355 17.0046L140.381 133.832L146.529 143.612H6.82159L0 132.841L37.8778 28.7218L52.598 17.9509H113.633L128.174 26.9266L137.456 4.21034L191.395 0.00260232L184.072 4.71661L179.355 17.0046ZM81.3205 107.17L104.298 43.8011L118.839 52.7768L96.5793 114.351H49.9053L81.3205 107.17Z" fill="white"/>
<path d="M149.07 133.832L190.65 9.13092L205.297 0.00260232L357.177 0L346.765 29.261H227.926L252.879 40.0319L247.134 56.0088L261.675 47.033H328.993L336.174 57.804L309.067 132.841L294.347 143.612H155.276L149.07 133.832ZM243.903 114.351L257.367 77.3711L234.209 91.5529L226.131 114.351H243.903Z" fill="white"/>
</svg>
